<svg width="48" height="48" viewBox="0 0 48 48" fill="none" xmlns="http://www.w3.org/2000/svg">
<g style="mix-blend-mode:luminosity">
<path d="M24 0.75L0.75 8.25V39.75L24 47.25L47.25 39.75V8.25L24 0.75Z" fill="#EFC665"/>
<path d="M0.75 8.25L24 15.75V47.25L0.75 39.75V8.25Z" fill="#EFC665"/>
<path d="M0.75 8.25L24 15.75V21.75L0.75 14.25V8.25Z" fill="#FFED83"/>
<path d="M47.25 8.25L24 15.75V47.25L47.25 39.75V8.25Z" fill="#D3AA4A"/>
<path d="M47.25 8.25L24 15.75V21.75L47.25 14.25V8.25Z" fill="#FAE25C"/>
<path d="M15.75 34.5L6.75 31.5V25.5L15.75 28.5V34.5Z" fill="#FFED83"/>
<path d="M35.25 40.5L44.25 37.5V34.5L35.25 37.5V40.5Z" fill="#FAE25C"/>
<path d="M35.25 34.5L44.25 31.5V28.5L35.25 31.5V34.5Z" fill="#FAE25C"/>
<path d="M8.25 10.6732L14.25 12.6082L37.6725 5.1607L30.885 2.9707L8.25 10.6732Z" fill="#D15850"/>
<path d="M8.25 10.6719V21.7494L14.25 23.9994V12.6069L8.25 10.6719Z" fill="#F7716A"/>
</g>
</svg>
