<svg width="48" height="48" viewBox="0 0 48 48" fill="none" xmlns="http://www.w3.org/2000/svg">
<g style="mix-blend-mode:luminosity">
<path d="M25.4062 38.3044L24 37.6875L22.5938 38.3044C21.3971 38.7288 20.4475 39.6784 20.0231 40.875L18.9375 42.2812L20.0231 43.6875C20.6036 45.3242 22.1667 46.5 24 46.5C25.8333 46.5 27.3964 45.3242 27.9769 43.6875L29.25 42.2812L27.9769 40.875C27.5525 39.6784 26.6029 38.7288 25.4062 38.3044ZM38.9536 13.0542C37.1939 6.30244 31.0569 1.5 24 1.5C16.9431 1.5 10.8062 6.30253 9.04631 13.0542C3.82397 14.1282 0 18.6705 0 24C0 30.2032 5.08875 35.25 11.3438 35.25H22.5938L23.9062 36.6562L25.4062 35.25H36.6562C42.9113 35.25 48 30.2032 48 24C48 18.6705 44.176 14.1282 38.9536 13.0542Z" fill="url(#paint0_linear_1615_1206)"/>
<path d="M9.9375 40.875C9.16087 40.875 8.53125 41.5046 8.53125 42.2812C8.53125 43.0579 9.16087 43.6875 9.9375 43.6875H20.0231C19.867 43.2473 19.7812 42.7742 19.7812 42.2812C19.7812 41.7883 19.867 41.3152 20.0231 40.875H9.9375ZM22.5938 38.3044C23.0339 38.1483 23.507 38.0625 24 38.0625C24.493 38.0625 24.9661 38.1483 25.4062 38.3044V35.25H22.5938V38.3044ZM38.0625 40.875H27.9769C28.133 41.3152 28.2188 41.7883 28.2188 42.2812C28.2188 42.7742 28.133 43.2473 27.9769 43.6875H38.0625C38.8391 43.6875 39.4688 43.0579 39.4688 42.2812C39.4688 41.5046 38.8391 40.875 38.0625 40.875ZM18.375 26.8125H29.625C30.4016 26.8125 31.0312 26.1829 31.0312 25.4062V22.5938C31.0312 21.8171 30.4016 21.1875 29.625 21.1875C28.8484 21.1875 28.2188 21.8171 28.2188 22.5938V24H19.7812V22.5938C19.7812 21.8171 19.1516 21.1875 18.375 21.1875C17.5984 21.1875 16.9688 21.8171 16.9688 22.5938V25.4062C16.9688 26.1829 17.5984 26.8125 18.375 26.8125ZM23.0057 20.7756C23.2802 21.0503 23.6401 21.1875 24 21.1875C24.3599 21.1875 24.7198 21.0503 24.9943 20.7756L27.8068 17.9631C28.356 17.4139 28.356 16.5235 27.8068 15.9743C27.2577 15.4252 26.3673 15.4252 25.8181 15.9743L25.4062 16.3863V11.3438C25.4062 10.5671 24.7766 9.9375 24 9.9375C23.2234 9.9375 22.5938 10.5671 22.5938 11.3438V16.3863L22.1818 15.9743C21.6327 15.4252 20.7423 15.4252 20.1931 15.9743C19.6439 16.5235 19.6439 17.4139 20.1931 17.9631L23.0057 20.7756Z" fill="url(#paint1_linear_1615_1206)"/>
</g>
<defs>
<linearGradient id="paint0_linear_1615_1206" x1="24" y1="46.5" x2="24" y2="1.5" gradientUnits="userSpaceOnUse">
<stop stop-color="#00B59C"/>
<stop offset="1" stop-color="#9CFFAC"/>
</linearGradient>
<linearGradient id="paint1_linear_1615_1206" x1="24" y1="43.6875" x2="24" y2="9.9375" gradientUnits="userSpaceOnUse">
<stop stop-color="#C3FFE8"/>
<stop offset="0.9973" stop-color="#F0FFF4"/>
</linearGradient>
</defs>
</svg>
