<svg xmlns="http://www.w3.org/2000/svg" width="64" height="64" viewBox="0 0 32 32" fill="#a90533"><path d="M5.018 25.998C2.534 23.366 1.08 19.73 1.085 15.392 1.08 11.556 2.287 8.258 4.36 5.75H0V26h5.018zm22.94.002c1.07-1.146 2.03-2.496 2.897-4.04l-4.82-2.4c-1.693 2.753-4.17 5.286-7.593 5.303-4.983-.017-6.94-4.278-6.93-9.763h18.62c.025-.62.025-.907 0-1.205.122-3.263-.743-6.006-2.316-8.142l-.008.006H32V26h-4.04zM11.812 10.4a4.43 4.43 0 0 1 4.46-4.158c2.3.005 3.98 1.675 4.038 4.158h-8.497z"/></svg>