<svg width="48" height="48" viewBox="0 0 48 48" fill="none" xmlns="http://www.w3.org/2000/svg">
<g style="mix-blend-mode:luminosity">
<path d="M38.6105 25.4983C42.4779 25.506 45.6782 22.3733 45.7488 18.5064C45.769 17.477 45.5652 16.4555 45.1517 15.5126C44.7381 14.5697 44.1246 13.7279 43.3537 13.0455C44.0407 12.5295 44.6089 11.8719 45.0198 11.1172C45.4307 10.3625 45.6747 9.52841 45.7353 8.67127C45.7959 7.81414 45.6717 6.95398 45.3711 6.149C45.0705 5.34403 44.6005 4.61301 43.9929 4.00541C43.3853 3.39781 42.6543 2.9278 41.8493 2.62719C41.0443 2.32658 40.1842 2.20238 39.327 2.26299C38.4699 2.3236 37.6358 2.56761 36.8811 2.97851C36.1265 3.38941 35.4689 3.95761 34.9528 4.64467C34.2704 3.8737 33.4286 3.26021 32.4857 2.84666C31.5429 2.43311 30.5214 2.22937 29.492 2.24954C25.6251 2.32013 22.4923 5.5202 22.5 9.38785C22.5037 11.0934 23.119 12.7411 24.2341 14.0317C25.3493 15.3222 26.8903 16.17 28.5773 16.421L2.25 42.7483L5.25 45.7483L31.5773 19.421C31.8283 21.108 32.6761 22.6491 33.9666 23.7642C35.2572 24.8794 36.9049 25.4947 38.6105 25.4983ZM39.75 10.4983C39.305 10.4983 38.87 10.3664 38.5 10.1191C38.13 9.87189 37.8416 9.52049 37.6713 9.10936C37.501 8.69823 37.4564 8.24583 37.5432 7.80937C37.6301 7.37291 37.8443 6.972 38.159 6.65733C38.4737 6.34266 38.8746 6.12837 39.311 6.04155C39.7475 5.95474 40.1999 5.99929 40.611 6.16959C41.0222 6.33989 41.3736 6.62828 41.6208 6.99829C41.868 7.3683 42 7.80331 42 8.24832C42 8.84506 41.7629 9.41736 41.341 9.83931C40.919 10.2613 40.3467 10.4983 39.75 10.4983ZM29.625 12.7483C28.9575 12.7483 28.305 12.5504 27.75 12.1795C27.1949 11.8087 26.7624 11.2816 26.5069 10.6649C26.2515 10.0482 26.1846 9.36958 26.3148 8.71489C26.4451 8.06021 26.7665 7.45884 27.2385 6.98684C27.7105 6.51483 28.3119 6.1934 28.9666 6.06317C29.6213 5.93295 30.2999 5.99978 30.9166 6.25523C31.5333 6.51067 32.0604 6.94326 32.4312 7.49827C32.8021 8.05329 33 8.70581 33 9.37332C33 10.2684 32.6444 11.1269 32.0115 11.7598C31.3785 12.3927 30.5201 12.7483 29.625 12.7483ZM38.625 21.7483C37.9575 21.7483 37.305 21.5504 36.75 21.1795C36.1949 20.8087 35.7624 20.2816 35.5069 19.6649C35.2515 19.0482 35.1846 18.3696 35.3148 17.7149C35.4451 17.0602 35.7665 16.4588 36.2385 15.9868C36.7105 15.5148 37.3119 15.1934 37.9666 15.0632C38.6213 14.9329 39.2999 14.9998 39.9166 15.2552C40.5333 15.5107 41.0604 15.9433 41.4312 16.4983C41.8021 17.0533 42 17.7058 42 18.3733C42 19.2684 41.6444 20.1269 41.0115 20.7598C40.3786 21.3927 39.5201 21.7483 38.625 21.7483Z" fill="#FCAC1E"/>
<path d="M21.7459 18.7502L21.7458 18.7503C20.9176 19.5785 20.9176 20.9215 21.7458 21.7497L26.2452 26.2491C27.0735 27.0774 28.4164 27.0774 29.2447 26.2491L29.2448 26.249C30.0731 25.4208 30.0731 24.0778 29.2448 23.2496L24.7454 18.7502C23.9171 17.9219 22.5742 17.9219 21.7459 18.7502Z" fill="#FFBA40"/>
<path d="M16.5 34.498L21 38.998L18.75 41.248L16.5 38.998L14.25 41.248L16.5 43.498L14.25 45.748L9.75 41.248L16.5 34.498Z" fill="#F98500"/>
</g>
</svg>
