<svg width="48" height="48" viewBox="0 0 48 48" fill="none" xmlns="http://www.w3.org/2000/svg">
<g style="mix-blend-mode:luminosity">
<path d="M34.3323 23.1057C34.3323 24.3527 33.5823 25.3634 32.6576 25.3634C31.7325 25.3634 31.1953 24.2025 31.1953 22.9556C31.1953 21.7086 31.7325 20.8477 32.6576 20.8477C33.5823 20.8477 34.3323 21.8584 34.3323 23.1057V23.1057Z" fill="#E8916F"/>
<path d="M44.863 23.1057C44.863 24.3527 45.613 25.3634 46.5377 25.3634C47.4628 25.3634 48 24.2025 48 22.9556C48 21.7086 47.4628 20.8477 46.5377 20.8477C45.6127 20.8477 44.863 21.8584 44.863 23.1057V23.1057Z" fill="#D98868"/>
<path d="M37.8896 30.1055H41.3053V35.5789H37.8896V30.1055Z" fill="#D98868"/>
<path d="M33.4493 25.1932V20.5771C33.4493 17.375 36.045 14.7793 39.2472 14.7793H39.9481C43.1499 14.7793 45.7456 17.375 45.7456 20.5771V25.1932C45.7456 28.5862 42.995 31.3368 39.6024 31.3368H39.5925C36.2 31.3368 33.4493 28.5862 33.4493 25.1932V25.1932Z" fill="#EBAD88"/>
<path d="M39.9437 14.7793H39.2516C39.022 14.7793 38.7957 14.7943 38.573 14.8203C41.4573 15.1572 43.6963 17.6112 43.6963 20.5907V25.179C43.6963 28.2302 41.4807 30.7626 38.573 31.2511C38.9063 31.3071 39.2483 31.3368 39.5977 31.3368C42.9932 31.3368 45.7456 28.5796 45.7456 25.179V20.5903C45.7456 17.3812 43.1481 14.7793 39.9437 14.7793V14.7793Z" fill="#E8916F"/>
<path d="M47.5902 39.623V40.4042C47.5902 40.6115 47.4221 40.7792 47.2152 40.7792H31.9801C31.7728 40.7792 31.6051 40.6115 31.6051 40.4042V39.623C31.6051 36.2609 33.9694 33.5352 36.8859 33.5352H42.3094C45.226 33.5352 47.5902 36.2609 47.5902 39.623Z" fill="#47D5E6"/>
<path d="M42.3094 33.5352H39.412C42.3285 33.5352 44.6927 36.2609 44.6927 39.623V40.7792H47.2152C47.4221 40.7792 47.5902 40.6115 47.5902 40.4042V39.623C47.5902 36.2609 45.226 33.5352 42.3094 33.5352Z" fill="#22C0D4"/>
<path d="M37.0375 33.5352H42.1575L39.5977 40.7792L37.0375 33.5352Z" fill="#DCDFE8"/>
<path d="M39.5977 40.7781L37.7864 33.1444C37.7479 32.9822 37.5776 32.8888 37.4205 32.9434L35.9095 33.4674C35.7568 33.5187 35.6539 33.6619 35.6539 33.8226V36.4817C35.6539 36.5535 35.6814 36.6223 35.7305 36.6743L39.5977 40.7781Z" fill="#20B5C7"/>
<path d="M39.5977 40.7781L41.4089 33.1444C41.4474 32.9822 41.6173 32.8888 41.7748 32.9434L43.2858 33.4674C43.4385 33.5187 43.541 33.6619 43.541 33.8226V36.4817C43.541 36.5535 43.5139 36.6223 43.4645 36.6743L39.5977 40.7781Z" fill="#20B5C7"/>
<path d="M33.423 21.8197C33.423 21.8197 33.9346 22.0267 34.4597 21.0397C35.0603 19.9114 36.6427 19.2812 38.5393 19.35C40.7282 19.4291 41.7173 18.7168 42.2212 17.9463C42.2644 17.88 42.364 17.8925 42.3893 17.9672C43.0309 19.8781 43.9017 19.4079 44.4741 21.1745C44.8132 22.2207 45.702 21.8197 45.702 21.8197C45.702 21.8197 48.1483 20.3992 46.8878 18.1437C47.1043 13.6108 43.5553 13.3423 43.5553 13.3423C43.5553 13.3423 41.933 11.2791 37.4865 12.3525C31.0701 13.9008 32.2093 18.4165 32.2093 18.4165C32.2093 18.4165 31.106 20.5556 33.423 21.8197Z" fill="#FFD659"/>
<path d="M46.8875 18.1423C47.1043 13.6097 43.5549 13.3412 43.5549 13.3412C43.5549 13.3412 42.1476 11.5541 38.3654 12.1734C39.178 12.3375 39.7496 12.6279 40.1191 12.878C40.5099 13.1427 40.9351 13.3555 41.3818 13.5086C42.4076 13.8605 44.1434 14.9317 43.99 18.1423C44.4888 19.0344 44.4067 19.795 44.1266 20.3897C44.2504 20.5933 44.3676 20.8442 44.4741 21.173C44.8132 22.2193 45.702 21.8183 45.702 21.8183C45.702 21.8183 48.1483 20.3978 46.8875 18.1423V18.1423Z" fill="#FFBD54"/>
<path d="M6.6947 30.1055H10.1104V35.5789H6.6947V30.1055Z" fill="#D98868"/>
<path d="M2.25439 25.1932V20.5771C2.25439 17.375 4.8501 14.7793 8.05188 14.7793H8.75281C11.955 14.7793 14.5503 17.375 14.5503 20.5771V25.1932C14.5503 28.5862 11.8 31.3368 8.4071 31.3368H8.39758C5.00464 31.3368 2.25439 28.5862 2.25439 25.1932V25.1932Z" fill="#EBAD88"/>
<path d="M8.74841 14.7793H8.05627C7.82666 14.7793 7.60034 14.7943 7.37769 14.8203C10.262 15.1572 12.501 17.6112 12.501 20.5907V25.179C12.501 28.2302 10.2854 30.7626 7.37769 31.2511C7.71094 31.3071 8.05298 31.3368 8.40234 31.3368C11.7979 31.3368 14.5503 28.5796 14.5503 25.179V20.5903C14.5507 17.3812 11.9528 14.7793 8.74841 14.7793V14.7793Z" fill="#E8916F"/>
<path d="M16.3949 39.623V40.4042C16.3949 40.6115 16.2272 40.7792 16.0199 40.7792H0.78479C0.577881 40.7792 0.40979 40.6115 0.40979 40.4042V39.623C0.40979 36.2609 2.77405 33.5352 5.69055 33.5352H11.1141C14.0306 33.5352 16.3949 36.2609 16.3949 39.623Z" fill="#FF2C5C"/>
<path d="M11.1141 33.5352H8.21667C11.1335 33.5352 13.4974 36.2609 13.4974 39.623V40.7792H16.0199C16.2272 40.7792 16.3949 40.6115 16.3949 40.4042V39.623C16.3949 36.2609 14.0306 33.5352 11.1141 33.5352Z" fill="#E62753"/>
<path d="M5.84253 33.5352H10.9625L8.40234 40.7792L5.84253 33.5352Z" fill="#DCDFE8"/>
<path d="M8.40234 40.7789L6.59033 33.1423C6.55225 32.9812 6.38416 32.8878 6.22705 32.9406L4.71423 33.4492C4.56152 33.5005 4.45898 33.6437 4.45898 33.8044V36.4825C4.45898 36.554 4.48608 36.6232 4.53552 36.6752L8.40234 40.7789Z" fill="#D6244D"/>
<path d="M8.40234 40.7789L10.2144 33.1423C10.2524 32.9812 10.4209 32.8878 10.5776 32.9406L12.0905 33.4492C12.2432 33.5005 12.3461 33.6437 12.3461 33.8044V36.4825C12.3461 36.554 12.3186 36.6232 12.2695 36.6752L8.40234 40.7789Z" fill="#D6244D"/>
<path d="M9.59143 17.7746C9.59143 17.7746 6.00256 19.3885 4.76331 21.4726C3.13477 24.2111 3.09119 27.0346 2.28625 29.7281C2.24011 29.8823 2.0343 29.9116 1.94751 29.7757C1.396 28.9129 0 26.4798 0 23.9507C0 10.4266 9.88733 12.0639 10.329 13.0915C12.323 12.2565 16.322 13.9821 16.322 21.9044C16.322 25.7206 15.8914 28.3471 14.7286 30.0317C14.6353 30.1668 14.4261 30.1273 14.3903 29.9669C14.1661 28.9601 13.5813 26.2132 13.3022 23.7805C12.6632 18.2031 9.59143 17.7746 9.59143 17.7746V17.7746Z" fill="#FFD659"/>
<path d="M10.329 13.0932C10.151 12.6794 8.4408 12.1667 6.46179 12.5857C6.81189 12.6706 7.07666 12.8892 7.40076 13.4664C7.83289 14.2358 8.47852 14.8686 9.27942 15.2381C11.4331 16.2328 12.791 18.3084 13.4374 21.9061C13.5901 22.7553 13.415 23.5705 13.3678 24.3147C13.6641 26.6038 14.1826 29.0348 14.3903 29.9686C14.4261 30.1286 14.6353 30.1685 14.7286 30.0334C15.8914 28.3488 16.322 25.7224 16.322 21.9061C16.322 13.9839 12.323 12.2583 10.329 13.0932V13.0932Z" fill="#FFBD54"/>
<path d="M16.5557 19.3422C16.5557 21.0996 15.4955 22.5242 14.1881 22.5242C12.8804 22.5242 12.1208 20.8883 12.1208 19.1309C12.1208 17.3734 12.8804 16.1602 14.1881 16.1602C15.4955 16.1602 16.5557 17.5847 16.5557 19.3422Z" fill="#E8916F"/>
<path d="M31.4443 19.3422C31.4443 21.0996 32.5045 22.5242 33.8119 22.5242C35.1196 22.5242 35.8792 20.8883 35.8792 19.1309C35.8792 17.3734 35.1196 16.1602 33.8119 16.1602C32.5045 16.1602 31.4443 17.5847 31.4443 19.3422Z" fill="#D98868"/>
<path d="M21.5856 29.207H26.4144V36.9213H21.5856V29.207Z" fill="#D98868"/>
<path d="M15.308 22.2577V15.804C15.308 11.2769 18.9778 7.60742 23.5045 7.60742H24.4955C29.0226 7.60742 32.6924 11.2769 32.6924 15.804V22.2577C32.6924 27.0543 28.8036 30.9431 24.007 30.9431H23.9934C19.1964 30.9431 15.308 27.0543 15.308 22.2577V22.2577Z" fill="#EBAD88"/>
<path d="M24.4893 7.60742H23.5107C23.1859 7.60742 22.8662 7.6283 22.5513 7.66492C26.6294 8.13989 29.7949 11.5988 29.7949 15.7977V22.2646C29.7949 26.5647 26.6624 30.1338 22.5513 30.8226C23.0226 30.9014 23.5063 30.9431 24 30.9431C28.8007 30.9431 32.692 27.0576 32.692 22.2646V15.7977C32.692 11.2743 29.0197 7.60742 24.4893 7.60742V7.60742Z" fill="#E8916F"/>
<path d="M35.2998 42.6206V43.6877C35.2998 43.9987 35.0479 44.2502 34.7373 44.2502H13.2627C12.9521 44.2502 12.7002 43.9987 12.7002 43.6877V42.6206C12.7002 37.8822 16.0426 34.041 20.1661 34.041H27.8339C31.9574 34.041 35.2998 37.8822 35.2998 42.6206Z" fill="#685C79"/>
<path d="M27.8339 34.041H24.9364C29.0599 34.041 32.4027 37.8822 32.4027 42.6206V44.2502H34.7373C35.0482 44.2502 35.2998 43.9987 35.2998 43.6877V42.6206C35.2998 37.8822 31.9574 34.041 27.8339 34.041V34.041Z" fill="#594F69"/>
<path d="M20.3807 34.041H27.6193L24 44.2502L20.3807 34.041Z" fill="#FFD659"/>
<path d="M28.1785 23.5345C27.8188 23.388 27.4083 23.5612 27.2622 23.9208C27.2556 23.9377 26.5536 25.5926 24.0868 25.5926C21.6324 25.5926 20.7583 23.9545 20.7162 23.8725C20.5441 23.5268 20.1247 23.3847 19.7779 23.5543C19.4289 23.7249 19.2843 24.1457 19.4549 24.4947C19.5051 24.5969 20.718 26.9988 24.0868 26.9988C27.4892 26.9988 28.5227 24.5548 28.5648 24.4508C28.7109 24.0911 28.5381 23.681 28.1785 23.5345Z" fill="#D98868"/>
<path d="M29.4284 17.9748C29.3569 17.9576 27.657 17.561 25.6476 18.2755C25.2817 18.4058 25.0906 18.8079 25.2206 19.1738C25.3231 19.4616 25.5941 19.6414 25.8831 19.6414C25.9614 19.6414 26.0409 19.6282 26.1189 19.6004C27.717 19.032 29.0878 19.3393 29.0988 19.3419C29.476 19.433 29.8561 19.2009 29.9469 18.8233C30.0381 18.4457 29.8059 18.066 29.4284 17.9748V17.9748Z" fill="#D98868"/>
<path d="M21.8811 19.6004C21.9591 19.6282 22.0386 19.6414 22.1166 19.6414C22.4059 19.6414 22.6769 19.4616 22.7791 19.1738C22.9095 18.8079 22.7183 18.4058 22.3525 18.2755C20.3431 17.561 18.6431 17.9576 18.5713 17.9748C18.1952 18.0656 17.9645 18.4432 18.0535 18.82C18.1429 19.1968 18.5215 19.4298 18.8983 19.3426C18.9123 19.3393 20.283 19.032 21.8811 19.6004Z" fill="#D98868"/>
<path d="M24 44.2508L21.4087 33.3645C21.3706 33.2037 21.2025 33.1107 21.0458 33.1631L18.6804 33.9559C18.5277 34.0068 18.4244 34.15 18.4244 34.3115V38.2095C18.4244 38.2995 18.4677 38.3845 18.5409 38.4372L19.7212 39.2916C19.7941 39.3447 19.8373 39.4293 19.8373 39.5194V41.0868C19.8373 41.1769 19.8805 41.2615 19.9534 41.3142L24 44.2508Z" fill="#50475E"/>
<path d="M24 44.2508L26.5913 33.3645C26.6294 33.2037 26.7975 33.1107 26.9542 33.1631L29.3196 33.9559C29.4723 34.0068 29.5756 34.15 29.5756 34.3115V38.2095C29.5756 38.2995 29.5323 38.3845 29.4591 38.4372L28.2788 39.2916C28.2059 39.3447 28.1627 39.4293 28.1627 39.5194V41.0868C28.1627 41.1769 28.1195 41.2615 28.0466 41.3142L24 44.2508Z" fill="#50475E"/>
<path d="M15.2706 17.5293C15.2706 17.5293 15.9935 17.8204 16.7362 16.4299C17.585 14.8395 19.8226 13.9514 22.5036 14.0481C25.6633 14.162 27.0545 13.1135 27.7529 12.0013C27.7954 11.9343 27.8961 11.9468 27.921 12.0222C28.8307 14.8054 30.0776 14.106 30.8946 16.6196C31.3736 18.0944 32.6305 17.5293 32.6305 17.5293C32.6305 17.5293 36.089 15.5272 34.3066 12.3481C34.6128 5.95959 29.5949 5.5813 29.5949 5.5813C29.5949 5.5813 27.3017 2.67358 21.015 4.18603C11.9436 6.36865 13.5542 12.733 13.5542 12.733C13.5542 12.733 11.9941 15.7477 15.2706 17.5293Z" fill="#8C4A37"/>
<path d="M34.3067 12.3481C34.6128 5.95957 29.595 5.58128 29.595 5.58128C29.595 5.58128 27.7694 3.26683 22.9113 3.84178C25.6183 4.21311 26.6975 5.58128 26.6975 5.58128C26.6975 5.58128 31.7153 5.95957 31.4092 12.3481C32.4599 14.2224 31.689 15.6872 30.8793 16.5742C30.8844 16.5896 30.8895 16.6042 30.8943 16.6196C31.3737 18.0943 32.6305 17.5293 32.6305 17.5293C32.6305 17.5293 36.089 15.5272 34.3067 12.3481Z" fill="#804231"/>
</g>
</svg>
