<svg width="48" height="48" viewBox="0 0 48 48" fill="none" xmlns="http://www.w3.org/2000/svg">
<g style="mix-blend-mode:luminosity" clip-path="url(#clip0_1615_1155)">
<path d="M2.65625 47.1223C2.65625 47.5692 3.01034 47.9315 3.44713 47.9315H5.66169C6.09847 47.9315 6.45256 47.5692 6.45256 47.1223V44.0469H2.65625V47.1223Z" fill="#3F6D8E"/>
<path d="M22.1019 47.1223C22.1019 47.5692 22.456 47.9315 22.8928 47.9315H25.1073C25.5441 47.9315 25.8982 47.5692 25.8982 47.1223V44.0469H22.1018V47.1223H22.1019Z" fill="#3F6D8E"/>
<path d="M41.5475 44.0469V47.1223C41.5475 47.5692 41.9016 47.9315 42.3384 47.9315H44.5529C44.9897 47.9315 45.3438 47.5692 45.3438 47.1223V44.0469H41.5475Z" fill="#3F6D8E"/>
<path d="M4.93541 47.1223V44.0469H2.65625V47.1223C2.65625 47.5692 3.01034 47.9315 3.44713 47.9315H5.66169C5.67256 47.9315 5.68316 47.9303 5.69394 47.9298C5.27225 47.9124 4.93541 47.558 4.93541 47.1223V47.1223Z" fill="#365E7D"/>
<path d="M24.381 47.1223V44.0469H22.1018V47.1223C22.1018 47.5692 22.4559 47.9315 22.8927 47.9315H25.1073C25.1181 47.9315 25.1287 47.9303 25.1395 47.9298C24.7178 47.9124 24.381 47.558 24.381 47.1223V47.1223Z" fill="#365E7D"/>
<path d="M43.8266 47.1223V44.0469H41.5475V47.1223C41.5475 47.5692 41.9016 47.9315 42.3384 47.9315H44.5529C44.5638 47.9315 44.5744 47.9303 44.5852 47.9298C44.1635 47.9124 43.8266 47.558 43.8266 47.1223V47.1223Z" fill="#365E7D"/>
<path d="M33.1063 0.0703125H27.4493L26.9053 0.780469H21.5474L20.7646 0.0703125H18.338C17.9456 0.292219 17.6805 0.696937 17.6805 1.15828V19.4738C17.6805 19.9352 17.9456 20.3399 18.3381 20.5618H33.1064C33.7918 20.5618 34.3527 20.0009 34.3527 19.3154V1.31663C34.3527 0.631125 33.7918 0.0703125 33.1063 0.0703125V0.0703125Z" fill="#FBC481"/>
<path d="M18.0489 19.3155V1.31662C18.0489 0.631125 18.6098 0.0703125 19.2952 0.0703125H15.1074C14.422 0.0703125 13.8611 0.631125 13.8611 1.31662V19.3155C13.8611 20.001 14.422 20.5619 15.1074 20.5619H19.2952C18.6098 20.5618 18.0489 20.001 18.0489 19.3155V19.3155Z" fill="#DD9973"/>
<path d="M20.7645 0.0703125V7.83797C20.7645 8.30269 21.2805 8.58169 21.6694 8.32725L23.7868 6.94162C23.9812 6.81431 24.2326 6.81431 24.4271 6.94162L26.5444 8.32725C26.9333 8.58169 27.4493 8.30278 27.4493 7.83797V0.0703125H20.7645Z" fill="#D6865F"/>
<path d="M24.1069 0.0703125H20.7645V7.83797C20.7645 8.30269 21.2805 8.58169 21.6694 8.32725L23.7867 6.94163C23.884 6.87797 23.9954 6.84619 24.1069 6.84619V0.0703125Z" fill="#B97359"/>
<path d="M21.7232 18.2242H16.9487C16.5406 18.2242 16.2097 17.8933 16.2097 17.4851C16.2097 17.0769 16.5406 16.7461 16.9487 16.7461H21.7232C22.1313 16.7461 22.4622 17.0769 22.4622 17.4851C22.4622 17.8933 22.1312 18.2242 21.7232 18.2242Z" fill="#D6865F"/>
<path d="M21.7232 15.771H16.9487C16.5406 15.771 16.2097 15.4402 16.2097 15.032C16.2097 14.6238 16.5406 14.293 16.9487 14.293H21.7232C22.1313 14.293 22.4622 14.6238 22.4622 15.032C22.4622 15.4401 22.1312 15.771 21.7232 15.771Z" fill="#D6865F"/>
<path d="M21.7232 13.3179H16.9487C16.5406 13.3179 16.2097 12.9871 16.2097 12.5789C16.2097 12.1707 16.5406 11.8398 16.9487 11.8398H21.7232C22.1313 11.8398 22.4622 12.1707 22.4622 12.5789C22.4622 12.987 22.1312 13.3179 21.7232 13.3179Z" fill="#D6865F"/>
<path d="M43.2452 20.1328H37.5881L37.0441 20.843H31.6861L30.9034 20.1328H28.4768C28.0844 20.3547 27.8193 20.7594 27.8193 21.2208V39.5363C27.8193 39.9977 28.0844 40.4024 28.4769 40.6243H43.2452C43.9306 40.6243 44.4916 40.0634 44.4916 39.3779V21.3791C44.4916 20.6936 43.9306 20.1328 43.2452 20.1328V20.1328Z" fill="#FBC481"/>
<path d="M28.1878 39.378V21.3791C28.1878 20.6936 28.7487 20.1328 29.4341 20.1328H25.2463C24.5609 20.1328 24 20.6936 24 21.3791V39.378C24 40.0635 24.5609 40.6244 25.2463 40.6244H29.4341C28.7487 40.6243 28.1878 40.0635 28.1878 39.378Z" fill="#DD9973"/>
<path d="M30.9034 20.1328V27.9005C30.9034 28.3652 31.4194 28.6442 31.8083 28.3897L33.9257 27.0041C34.1201 26.8768 34.3715 26.8768 34.566 27.0041L36.6833 28.3897C37.0722 28.6442 37.5882 28.3653 37.5882 27.9005V20.1328H30.9034Z" fill="#D6865F"/>
<path d="M34.2458 20.1328H30.9034V27.9005C30.9034 28.3652 31.4194 28.6442 31.8083 28.3897L33.9257 27.0041C34.0229 26.9405 34.1344 26.9087 34.2458 26.9087V20.1328Z" fill="#B97359"/>
<path d="M31.8619 38.2867H27.0875C26.6794 38.2867 26.3485 37.9558 26.3485 37.5476C26.3485 37.1394 26.6794 36.8086 27.0875 36.8086H31.8619C32.2701 36.8086 32.601 37.1394 32.601 37.5476C32.601 37.9558 32.2701 38.2867 31.8619 38.2867Z" fill="#D6865F"/>
<path d="M31.8619 35.8335H27.0875C26.6794 35.8335 26.3485 35.5027 26.3485 35.0945C26.3485 34.6863 26.6794 34.3555 27.0875 34.3555H31.8619C32.2701 34.3555 32.601 34.6863 32.601 35.0945C32.601 35.5027 32.2701 35.8335 31.8619 35.8335Z" fill="#D6865F"/>
<path d="M31.8619 33.3804H27.0875C26.6794 33.3804 26.3485 33.0496 26.3485 32.6414C26.3485 32.2332 26.6794 31.9023 27.0875 31.9023H31.8619C32.2701 31.9023 32.601 32.2332 32.601 32.6414C32.601 33.0495 32.2701 33.3804 31.8619 33.3804Z" fill="#D6865F"/>
<path d="M22.9675 20.1328H17.3105L16.7665 20.843H11.4085L10.6258 20.1328H8.19909C7.80666 20.3547 7.54163 20.7594 7.54163 21.2208V39.5363C7.54163 39.9977 7.80666 40.4024 8.19919 40.6243H22.9675C23.6529 40.6243 24.2138 40.0634 24.2138 39.3779V21.3791C24.2138 20.6936 23.6529 20.1328 22.9675 20.1328V20.1328Z" fill="#FBC481"/>
<path d="M7.9101 39.378V21.3791C7.9101 20.6936 8.47101 20.1328 9.15641 20.1328H4.9686C4.2832 20.1328 3.72229 20.6936 3.72229 21.3791V39.378C3.72229 40.0635 4.2832 40.6244 4.9686 40.6244H9.15641C8.47091 40.6243 7.9101 40.0635 7.9101 39.378Z" fill="#DD9973"/>
<path d="M10.6256 20.1328V27.9005C10.6256 28.3652 11.1416 28.6442 11.5305 28.3897L13.6478 27.0041C13.8423 26.8768 14.0937 26.8768 14.2881 27.0041L16.4055 28.3897C16.7944 28.6442 17.3104 28.3653 17.3104 27.9005V20.1328H10.6256Z" fill="#D6865F"/>
<path d="M13.968 20.1328H10.6256V27.9005C10.6256 28.3652 11.1416 28.6442 11.5305 28.3897L13.6478 27.0041C13.745 26.9405 13.8565 26.9087 13.968 26.9087V20.1328Z" fill="#B97359"/>
<path d="M11.5842 38.2867H6.80983C6.40164 38.2867 6.0708 37.9558 6.0708 37.5476C6.0708 37.1394 6.40164 36.8086 6.80983 36.8086H11.5842C11.9924 36.8086 12.3233 37.1394 12.3233 37.5476C12.3233 37.9558 11.9923 38.2867 11.5842 38.2867V38.2867Z" fill="#D6865F"/>
<path d="M11.5842 35.8335H6.80983C6.40164 35.8335 6.0708 35.5027 6.0708 35.0945C6.0708 34.6863 6.40164 34.3555 6.80983 34.3555H11.5842C11.9924 34.3555 12.3233 34.6863 12.3233 35.0945C12.3233 35.5027 11.9923 35.8335 11.5842 35.8335V35.8335Z" fill="#D6865F"/>
<path d="M11.5842 33.3804H6.80983C6.40164 33.3804 6.0708 33.0496 6.0708 32.6414C6.0708 32.2332 6.40164 31.9023 6.80983 31.9023H11.5842C11.9924 31.9023 12.3233 32.2332 12.3233 32.6414C12.3233 33.0495 11.9923 33.3804 11.5842 33.3804V33.3804Z" fill="#D6865F"/>
<path d="M47.2628 40.625H0.737156C0.330094 40.625 0 40.955 0 41.3622V43.3979C0 43.805 0.33 44.1351 0.737156 44.1351H47.2629C47.67 44.1351 48.0001 43.8051 48.0001 43.3979V41.3622C48 40.955 47.67 40.625 47.2628 40.625Z" fill="#477B9E"/>
<path d="M7.12631 43.3979V41.3622C7.12631 40.955 7.45631 40.625 7.86347 40.625H0.737156C0.330094 40.625 0 40.955 0 41.3622V43.3979C0 43.805 0.33 44.1351 0.737156 44.1351H7.86347C7.45641 44.135 7.12631 43.805 7.12631 43.3979Z" fill="#3F6D8E"/>
</g>
<defs>
<clipPath id="clip0_1615_1155">
<rect width="48" height="48" fill="white"/>
</clipPath>
</defs>
</svg>
