<svg width="60" height="60" viewBox="0 0 60 60" fill="none" xmlns="http://www.w3.org/2000/svg">
<path d="M31.9263 59.9345L48.1979 53.4961C54.6158 48.2309 58.7109 40.2383 58.7109 31.2891C58.7109 15.4326 45.8565 2.57812 30 2.57812C14.1435 2.57812 1.28906 15.4326 1.28906 31.2891C1.28906 47.146 14.1435 60 30 60C30.6477 60 31.2895 59.9767 31.9263 59.9345Z" fill="#11753D"/>
<path d="M46.8443 37.3761C47.0732 34.6052 46.6511 31.8289 45.4243 29.3336C42.2552 22.8869 42.9821 22.4191 42.8837 16.0209C42.8837 14.7136 41.824 13.6543 40.5171 13.6543C39.2097 13.6543 38.1504 14.7136 38.1504 16.0209C38.1504 16.8651 38.1504 39.9075 38.1504 39.8173C38.1504 40.1863 38.1111 40.5465 38.0383 40.894V44.3007C38.0383 47.1713 35.7028 49.5073 32.8321 49.5073C30.9255 49.5073 24.3507 49.5073 19.877 49.5073C21.8669 52.2749 24.5896 54.4424 27.7496 55.7548C27.7693 55.7626 27.7889 55.7709 27.8086 55.7791C29.7097 56.5825 31.1613 58.0972 31.9258 59.9338C38.0822 59.5259 43.7086 57.1789 48.1974 53.4958L46.4337 47.0161C46.1819 46.0901 46.0931 45.1274 46.1714 44.1711L46.8443 37.3761Z" fill="#F9CFA9"/>
<path d="M11.088 13.7376L10.3671 13.0698C9.25607 12.0398 7.50421 12.1066 6.4747 13.2181C5.44519 14.3291 5.51202 16.0809 6.62301 17.1104L11.088 21.2477V13.7376Z" fill="#F9CFA9"/>
<path d="M34.7604 0H14.5204C12.5566 0 10.959 1.59805 10.959 3.56186V46.2158C10.959 48.1796 12.5566 49.7777 14.5204 49.7777H34.7604C36.7242 49.7777 38.3223 48.1796 38.3223 46.2158V3.56186C38.3223 1.59805 36.7242 0 34.7604 0V0Z" fill="#3D4EC6"/>
<path d="M17.8172 2.6413C17.6245 2.35474 17.5119 2.01004 17.5119 1.63879C17.5119 0.910034 17.9458 0.283813 18.5684 0H14.5208C12.5538 0 10.959 1.59485 10.959 3.56186V46.2158C10.959 48.1828 12.5538 49.7772 14.5208 49.7772H18.8238V5.76279C18.8238 4.64264 18.4425 3.57101 17.8172 2.6413Z" fill="#2B3894"/>
<path d="M13.0215 22.4971V46.2156C13.0215 47.0442 13.693 47.7157 14.5211 47.7157H34.7611C35.5892 47.7157 36.2608 47.0442 36.2608 46.2156C36.2608 45.4017 36.2608 33.52 36.2608 22.4971H13.0215Z" fill="#E6F7FE"/>
<path d="M13.0215 22.4971V46.2156C13.0215 47.0442 13.693 47.7157 14.5211 47.7157H18.0688V22.4971H13.0215Z" fill="#D5F1FE"/>
<path d="M21.174 29.6519C21.174 30.9497 20.1221 32.0016 18.8243 32.0016C17.5266 32.0016 16.4746 30.9497 16.4746 29.6519C16.4746 28.3542 17.5266 27.3018 18.8243 27.3018C20.1221 27.3018 21.174 28.3542 21.174 29.6519Z" fill="#3D4EC6"/>
<path d="M21.174 38.3653C21.174 39.6631 20.1221 40.7155 18.8243 40.7155C17.5266 40.7155 16.4746 39.6631 16.4746 38.3653C16.4746 37.0676 17.5266 36.0156 18.8243 36.0156C20.1221 36.0156 21.174 37.0676 21.174 38.3653Z" fill="#3D4EC6"/>
<path d="M18.5588 27.3174C17.386 27.4497 16.4746 28.4435 16.4746 29.6515C16.4746 30.9493 17.5266 32.0012 18.8243 32.0012C19.6336 32.0012 20.3468 31.592 20.7693 30.9694C18.7433 31.1978 17.4533 28.9456 18.5588 27.3174Z" fill="#2B3894"/>
<path d="M18.5588 36.0312C17.386 36.1631 16.4746 37.1573 16.4746 38.3649C16.4746 39.6631 17.5266 40.7151 18.8243 40.7151C19.6336 40.7151 20.3468 40.3058 20.7693 39.6833C18.7556 39.9099 17.446 37.67 18.5588 36.0312Z" fill="#2B3894"/>
<path d="M28.426 28.6748H25.0898C24.6046 28.6748 24.2109 28.2811 24.2109 27.7959C24.2109 27.3102 24.6046 26.917 25.0898 26.917H28.426C28.9113 26.917 29.3049 27.3102 29.3049 27.7959C29.3049 28.2811 28.9113 28.6748 28.426 28.6748Z" fill="#11DFEF"/>
<path d="M31.7622 32.3867H25.0898C24.6042 32.3867 24.2109 31.993 24.2109 31.5078C24.2109 31.0221 24.6042 30.6289 25.0898 30.6289H31.7622C32.2474 30.6289 32.6411 31.0221 32.6411 31.5078C32.6411 31.993 32.2474 32.3867 31.7622 32.3867Z" fill="#11DFEF"/>
<path d="M28.426 37.3877H25.0898C24.6046 37.3877 24.2109 36.9945 24.2109 36.5088C24.2109 36.0231 24.6046 35.6299 25.0898 35.6299H28.426C28.9113 35.6299 29.3049 36.0231 29.3049 36.5088C29.3049 36.9945 28.9113 37.3877 28.426 37.3877Z" fill="#11DFEF"/>
<path d="M31.7622 41.0996H25.0898C24.6042 41.0996 24.2109 40.7064 24.2109 40.2207C24.2109 39.7355 24.6042 39.3418 25.0898 39.3418H31.7622C32.2474 39.3418 32.6411 39.7355 32.6411 40.2207C32.6411 40.7064 32.2474 41.0996 31.7622 41.0996Z" fill="#11DFEF"/>
<path d="M34.7494 2.0625H31.7415C31.4576 2.0625 31.2278 2.2923 31.2278 2.57565C31.2278 3.25635 30.6712 3.81299 29.991 3.81299H19.2688C18.5881 3.81299 18.0314 3.25635 18.0314 2.57565C18.0314 2.2923 17.8016 2.0625 17.5178 2.0625H14.5099C13.6813 2.0625 13.0098 2.73404 13.0098 3.56213V22.7319H36.2495V3.56213C36.2495 2.73404 35.578 2.0625 34.7494 2.0625Z" fill="#F948B4"/>
<path d="M18.069 2.87228C18.0452 2.77707 18.0314 2.67819 18.0314 2.57611C18.0314 2.2923 17.8016 2.0625 17.5178 2.0625H14.5099C13.6813 2.0625 13.0098 2.73404 13.0098 3.56213V22.7319H18.069V2.87228Z" fill="#E00E8B"/>
<path d="M34.7485 2.0625H31.7405C31.4567 2.0625 31.2269 2.2923 31.2269 2.57565C31.2269 3.25635 30.6703 3.81299 29.99 3.81299H24.0762L36.2486 19.0712V3.56213C36.2486 2.73404 35.577 2.0625 34.7485 2.0625Z" fill="#FC7ACD"/>
<path d="M20.8499 9.04688H16.7969C16.3116 9.04688 15.918 8.65366 15.918 8.16797C15.918 7.68228 16.3116 7.28906 16.7969 7.28906H20.8499C21.3351 7.28906 21.7288 7.68228 21.7288 8.16797C21.7288 8.6532 21.3351 9.04688 20.8499 9.04688Z" fill="#FC7ACD"/>
<path d="M15.0956 28.2637C14.1897 29.241 12.6626 29.2996 11.6848 28.3937L7.64229 24.6478C6.66451 23.7419 6.60637 22.2148 7.51229 21.237C8.4182 20.2592 9.9453 20.2011 10.9231 21.107L14.9656 24.8529C15.9429 25.7588 16.0015 27.2859 15.0956 28.2637Z" fill="#F9CFA9"/>
<path d="M14.9651 24.8539L13.0421 23.0723C13.2952 23.9892 13.0851 25.0109 12.3916 25.7593C11.6976 26.5082 10.6946 26.7953 9.76172 26.6131L11.6843 28.3947C12.6621 29.3006 14.1888 29.242 15.0951 28.2647C16.001 27.2869 15.9424 25.7598 14.9651 24.8539Z" fill="#FBBC8D"/>
<path d="M15.0956 34.8472C14.1897 35.825 12.6626 35.8831 11.6848 34.9772L7.64229 31.2313C6.66451 30.3254 6.60637 28.7983 7.51229 27.821C8.4182 26.8432 9.9453 26.7851 10.9231 27.691L14.9656 31.4369C15.9429 32.3428 16.0015 33.8694 15.0956 34.8472Z" fill="#F9CFA9"/>
<path d="M15.0956 41.4297C14.1897 42.4075 12.6626 42.4656 11.6848 41.5597L7.64229 37.8138C6.66451 36.9079 6.60637 35.3808 7.51229 34.403C8.4182 33.4252 9.9453 33.3671 10.9231 34.273L14.9656 38.0189C15.9429 38.9248 16.0015 40.4519 15.0956 41.4297Z" fill="#F9CFA9"/>
<path d="M46.4344 47.0163C46.3094 46.5558 46.2247 46.0866 46.1803 45.6133C41.708 52.9558 33.0251 56.3657 24.8691 54.2453C25.7787 54.8299 26.7423 55.3362 27.7503 55.755C27.77 55.7633 27.7897 55.7715 27.8094 55.7798C29.7105 56.5827 31.162 58.0974 31.9265 59.9344C38.083 59.5266 43.7093 57.1791 48.1982 53.496L46.4344 47.0163Z" fill="#FBBC8D"/>
<path d="M14.9651 31.4369L13.0421 29.6553C13.2952 30.5717 13.0851 31.5934 12.3916 32.3424C11.6976 33.0913 10.6946 33.3783 9.76172 33.1961L11.6843 34.9772C12.6621 35.8832 14.1892 35.825 15.0951 34.8472C16.001 33.8695 15.9424 32.3428 14.9651 31.4369Z" fill="#FBBC8D"/>
<path d="M14.9651 38.0199L13.0421 36.2383C13.2952 37.1552 13.0851 38.1769 12.3916 38.9254C11.6976 39.6743 10.6946 39.9617 9.76172 39.7791L11.6843 41.5607C12.6621 42.4666 14.1892 42.4085 15.0951 41.4307C16.001 40.4529 15.9424 38.9258 14.9651 38.0199Z" fill="#FBBC8D"/>
</svg>
