<svg height="225.171993" viewBox="0 0 442 224" width="444.104964" xmlns="http://www.w3.org/2000/svg"><g transform="matrix(1.9791003 0 0 1.9311234 -49.35706 -75.680378)"><g fill="#010101"><path d="m62.52513 56.04319s.11812.2886.29809.78571c-.04917-.28146-.10385-.56053-.16811-.84039-.04278.01665-.08483.03566-.13.05468"/><path d="m62.52513 56.04319s.11812.2886.29809.78571c-.04917-.28146-.10385-.56053-.16811-.84039-.04278.01665-.08483.03566-.13.05468"/><path d="m62.52513 56.04319s.11812.2886.29809.78571c-.04917-.28146-.10385-.56053-.16811-.84039-.04278.01665-.08483.03566-.13.05468"/></g><g fill="#61b510"><path d="m212.22614 83.586h-32.47946a4.96186 4.96186 0 0 1 1.82508 1.15753 7.08681 7.08681 0 0 1 1.274 1.745 8.941 8.941 0 0 1 .76427 2.059 9.30812 9.30812 0 0 1 .23943 1.59594v18.349a8.88912 8.88912 0 0 1 -1.21932 3.66916 8.28343 8.28343 0 0 1 -1.25427 1.60705 6.59769 6.59769 0 0 1 -1.62924 1.198h19.26076a4.745 4.745 0 0 1 -2.0407-1.05763 6.21243 6.21243 0 0 1 -1.33269-1.70705 7.29226 7.29226 0 0 1 -.72464-2.10019 12.124 12.124 0 0 1 -.218-2.27459v-7.05922q1.64825 0 3.09912.0967a7.77487 7.77487 0 0 1 2.60836.60889 5.2305 5.2305 0 0 1 2.00029 1.569 7.36555 7.36555 0 0 1 1.27643 2.981v-14.35559a11.99024 11.99024 0 0 1 -1.6094 2.80261 5.37467 5.37467 0 0 1 -1.86315 1.49131 6.70652 6.70652 0 0 1 -2.37212.58985q-1.3355.09515-3.13953.09673v-8.62828l5.88507.03726q1.3712 0 2.84305.11654a17.21111 17.21111 0 0 1 2.86444.47331 12.27207 12.27207 0 0 1 2.66788 1.018 7.47629 7.47629 0 0 1 2.21591 1.7656 7.1209 7.1209 0 0 1 .62791.84276 3.3336 3.3336 0 0 1 .43052.9617z"/><path d="m215.32493 83.586v11.88592a6.94382 6.94382 0 0 1 1.45083-3.39484 8.79514 8.79514 0 0 1 2.7273-2.23416 11.28766 11.28766 0 0 1 3.45193-1.15754 14.48046 14.48046 0 0 1 3.66679-.15617v20.36279a7.29074 7.29074 0 0 1 -.31472 1.52459 6.86136 6.86136 0 0 1 -1.0204 2.00029 7.21468 7.21468 0 0 1 -1.58641 1.56977 6.38649 6.38649 0 0 1 -2.06214.97994h20.59589a5.38408 5.38408 0 0 1 -2.27538-.9609 6.68468 6.68468 0 0 1 -1.64748-1.745 7.87968 7.87968 0 0 1 -1.00134-2.21751 8.95739 8.95739 0 0 1 -.33379-2.41255v-19.10142h1.02035a16.81763 16.81763 0 0 1 2.54971.25291 13.21381 13.21381 0 0 1 3.13881.94186 8.81734 8.81734 0 0 1 2.86206 2.05976 7.04247 7.04247 0 0 1 1.726 3.57006v-11.7678z"/><path d="m160.37032 113.35864a6.78972 6.78972 0 0 1 -1.66654 1.11788q-.82413.37221-1.06076.49h22.16483a3.728 3.728 0 0 1 -1.041-.39087 9.89077 9.89077 0 0 1 -.92125-.58907 11.31063 11.31063 0 0 1 -2.11841-1.9416 13.95928 13.95928 0 0 1 -1.52936-2.27461 20.68606 20.68606 0 0 1 -1.19557-2.66783l-1.61022-4.78229-2.17551-6.45594-4.19719-12.27916h-18.39812a7.0662 7.0662 0 0 1 1.66892.64932 5.84432 5.84432 0 0 1 1.27323 1.018 3.7246 3.7246 0 0 1 .90223 1.66886 3.862 3.862 0 0 1 0 1.7252 10.5017 10.5017 0 0 1 -.509 1.68551q-.78494 2.04192-1.19794 3.23629c-.0825.24183-.17048.46619-.26484.689l-3.32429 8.58859q-.27234.74567-.82374 2.19692-.54939 1.452-1.2352 3.02064-.6862 1.56976-1.45164 2.94215a7.59044 7.59044 0 0 1 -1.43186 1.96064 16.88854 16.88854 0 0 1 -1.37316 1.02035c-.46856.31238-.84276.54864-1.11708.70482a4.45419 4.45419 0 0 0 -.45031.27512h16.55246a5.08 5.08 0 0 1 -2.96194-1.84411 5.77308 5.77308 0 0 1 -1.11708-3.333 4.86865 4.86865 0 0 1 .17759-1.09886c.11575-.47093.26082-.94662.43125-1.43183q.25217-.72541.52963-1.39218c.18-.44477.31317-.78648.39084-1.02037h9.29671c.0777.21088.18233.50425.31478.88321q.195.56846.41145 1.15751c.14271.39244.2751.77141.39322 1.13849.11575.3647.2014.639.25371.82135a3.9135 3.9135 0 0 1 -.19661 2.66785 6.01832 6.01832 0 0 1 -1.39218 1.84409m-8.06058-12.23876 3.29491-10.198 3.45194 10.198z"/><path d="m127.345 99.31765a8.51863 8.51863 0 0 0 2.18659-1.4469l.20377-.20375a9.14968 9.14968 0 0 0 .84276-.95613c.0333-.0452.0714-.088.10467-.13479a7.762 7.762 0 0 0 1.749-5.656h-.002a6.73985 6.73985 0 0 0 -.6747-2.56793 9.12516 9.12516 0 0 0 -.84276-1.3922 5.91576 5.91576 0 0 0 -2.00029-1.7656 11.13389 11.13389 0 0 0 -2.58934-1.02037 16.78681 16.78681 0 0 0 -2.80342-.46933q-1.4342-.12014-2.64881-.11815h-21.57384a5.70315 5.70315 0 0 1 2.01931.9609 5.47775 5.47775 0 0 1 1.39217 1.8235 7.44658 7.44658 0 0 1 .66759 3.25451q.0392 1.02276.0404 2.08115v16.08077a9.22184 9.22184 0 0 1 -.25608 2.10017 9.47308 9.47308 0 0 1 -.74525 2.05894 6.95992 6.95992 0 0 1 -1.255 1.764 5.9193 5.9193 0 0 1 -1.78461 1.25664h18.63284a12.01751 12.01751 0 0 1 -1.19793-.51138 4.54927 4.54927 0 0 1 -1.23525-.90143 5.38216 5.38216 0 0 1 -1.03937-1.56979 8.04647 8.04647 0 0 1 -.60652-2.54971 38.75164 38.75164 0 0 1 -.15857-4.31531q.0393-2.19414.0405-4.31294h1.255q.86572 0 1.67841-.007c4.91389 11.47606 6.62321 14.1677 11.51407 14.1677h10.76176c-3.68344 0-8.392-8.62588-11.67507-15.64947m-14.20179-2.78691v-8.31584c.968 0 1.92732-.019 2.88345-.05947a7.99647 7.99647 0 0 1 2.56873.27432 3.51469 3.51469 0 0 1 1.84409 1.255 4.67566 4.67566 0 0 1 .70484 2.84542 3.87234 3.87234 0 0 1 -.76427 2.6274 3.73452 3.73452 0 0 1 -1.94082 1.15753 9.637 9.637 0 0 1 -2.58779.25608c-.94263-.02855-1.84409-.04045-2.70823-.04045"/></g><path d="m105.4102 47.13222a8.31721 8.31721 0 0 0 -4.8505 7.11636l-.007.0024a8.30113 8.30113 0 0 0 -7.84971-.94026 8.37809 8.37809 0 0 0 .38054 1.018 8.28837 8.28837 0 0 0 5.13034 4.5 16.279 16.279 0 0 1 -4.83144 4.84175 5.928 5.928 0 0 1 -2.80579.92761 6.32477 6.32477 0 0 1 -6.30606-3.26881 6.31692 6.31692 0 0 1 -7.97576 2.736c-.38136-.222-.75716-.45666-1.11713-.70957a16.22184 16.22184 0 0 1 -6.33936-8.87561c.04679-.0024.092-.0071.13955-.01188a8.29262 8.29262 0 0 0 6.21171-4.00533 7.9575 7.9575 0 0 0 .3909-.73337 8.29358 8.29358 0 0 0 -7.30823-1.28593c-.2537.07609-.50664.16568-.75556.26558.08561-2.9144-2.10176-7.29869-4.78386-8.89383a10.65859 10.65859 0 0 0 -1.05606-.528l-.23624-.09751-.16332.20851a8.4087 8.4087 0 0 0 -.58034.857c-1.58167 2.69161-1.14563 7.523.33375 10.03709-.26479.03092-.5304.07609-.7904.13239a8.28889 8.28889 0 0 0 -5.39755 3.9086 7.98787 7.98787 0 0 0 -.38373.73891 8.08131 8.08131 0 0 0 .69613.45428 8.27894 8.27894 0 0 0 7.36924.51613c.0452-.019.088-.03569.13-.0547a16.18975 16.18975 0 0 1 -.9062 10.02124c-.0047-.01427-.0072-.03092-.0119-.04519-.02139.08006-.04994.16094-.07375.24417-.09194.203-.18707.40672-.28618.60809a15.63886 15.63886 0 0 1 -.79282 1.42075 6.31849 6.31849 0 0 1 -8.34284 1.39378 6.32446 6.32446 0 0 1 -4.01007 5.86368 6.2552 6.2552 0 0 1 -1.75374.41226 16.3032 16.3032 0 0 1 -7.46912-1.95509 8.27561 8.27561 0 0 0 2.32692-6.41548c-.02855-.36709-.08245-1.04176-.15383-1.38983-2.86681.35995-5.23418 2.916-6.42738 4.28916h-.0071c-1.58327-1.37316-4.4929-3.823-7.67928-3.58117a8.41092 8.41092 0 0 0 -2.12789.63664 107.28966 107.28966 0 0 1 10.14331 8.64969c2.24689 2.15251 4.40333 4.44851 6.4631 6.79921 2.86206 3.27355 7.7506 9.88566 7.75534 9.88329a6.60584 6.60584 0 0 0 4.70378 1.7664.46715.46715 0 0 0 .398-.43844c.02061-.17282-.27747-.27669-.4313-.34565a3.73981 3.73981 0 0 1 -2.36745-2.62745c-.92047-2.88348 7.70541-8.08911 20.31358-11.28974 12.61058-3.19823 22.7381-2.80975 23.32318.16571a3.74514 3.74514 0 0 1 -.81029 3.4448c-.10147.13477-.31473.37183-.20769.51373a.469.469 0 0 0 .5605.19664 6.61534 6.61534 0 0 0 3.27435-3.80475s1.35415-8.19538 2.28415-12.44248q1.00486-4.58089 2.40541-9.03813a106.35551 106.35551 0 0 1 4.75847-12.39731 8.24385 8.24385 0 0 0 -2.09538.60569" fill="#f7760d"/><path d="m60.86512 86.27465a82.07479 82.07479 0 0 1 21.3197-5.87082s14.31512 1.40884 14.31512 18.21185-11.95254 26.39532-28.22275 26.39532c-16.2679 0-24.847-7.171-24.847-14.80985 0-7.63962 5.49186-8.85658 8.04631-8.85658 2.55208 0 7.17026 2.30631 7.17026 8.29288 0 0-4.59674-1.129-4.59674 2.84782s5.43476 6.45353 12.88728 6.45353c7.4501 0 17.97238-3.26483 17.97238-17.81148 0-15.52022-7.18212-16.21393-12.17532-16.21393v26.62286a2.50051 2.50051 0 0 0 2.61155 2.34119s-2.62583 2.21594-9.12376 2.21594-8.34919-2.08591-8.34919-2.08591 3.07537.0119 3.07537-2.70112c0-2.71066-.08323-25.03171-.08323-25.03171" fill="#61b510"/><path d="m241.05193 141.9117a9.84716 9.84716 0 0 0 -.77143-1.71883 7.18978 7.18978 0 0 0 -2.15727-2.36022l-.005-.005c-.10864-.0777-.21486-.1562-.32189-.22912l-.0214-.0143a14.39492 14.39492 0 0 0 -1.50318-.92127c-3.69292-1.967-7.48736-1.97648-10.53181-2.69161a12.70044 12.70044 0 0 1 -1.42232-.41862c-.17043-.0666-.33854-.13557-.5066-.21089a7.52572 7.52572 0 0 1 -1.78544-1.11945 3.12482 3.12482 0 0 1 -.97989-1.56742 1.79166 1.79166 0 0 1 .15615-1.49127 5.024 5.024 0 0 1 1.55075-1.51032 7.66965 7.66965 0 0 1 2.13748-.92127 9.19926 9.19926 0 0 1 2.49024-.29571 10.00255 10.00255 0 0 1 2.57109.37419 18.45176 18.45176 0 0 1 2.80265.94189 8.603 8.603 0 0 1 1.82584 1.09646 9.95975 9.95975 0 0 1 .78329.708c.26242.26.53519.53434.82374.82374.28623.2862.60812.60569.96093.9609q.52922.52917 1.31368 1.27326v-11.49271s-.88 2.19689-4.37241 2.19689a27.4549 27.4549 0 0 1 -2.92313-.23466c-.99417-.15858-2.00024-.31952-3.02064-.49234a18.45024 18.45024 0 0 0 -3.41148-.21328 17.253 17.253 0 0 0 -4.64911.62713 12.50775 12.50775 0 0 0 -4.0196 1.90116 9.19014 9.19014 0 0 0 -3.88478 7.82672 7.44856 7.44856 0 0 0 .92284 3.96013 9.65866 9.65866 0 0 0 1.78544 2.16838l.009.007c.0206.0214.0468.0404.0682.0618.0785.0658.1562.1324.23469.19661.12286.10387.24814.203.3742.30285 2.54177 1.95035 6.13089 2.89538 10.28047 3.84438.0809.019.15383.0333.23232.05l.0309.007q.6386.14151 1.28039.32663a11.41918 11.41918 0 0 1 2.27539.90143 4.917 4.917 0 0 1 1.53173 1.21461 1.5987 1.5987 0 0 1 .31236 1.51269 3.17478 3.17478 0 0 1 -1.5674 2.116 6.24911 6.24911 0 0 1 -2.64881.70562 11.73521 11.73521 0 0 1 -3.00162-.23389 19.90262 19.90262 0 0 1 -2.6282-.708 23.746 23.746 0 0 1 -4.82427-2.43157 24.40748 24.40748 0 0 1 -2.843-2.27461 16.20244 16.20244 0 0 1 -2.49266-2.98021v13.70388a11.02556 11.02556 0 0 1 4.85287-1.46035.08041.08041 0 0 0 .0143.0143 11.16083 11.16083 0 0 1 1.66413-.1562 13.78424 13.78424 0 0 1 2.54971.19583 23.57791 23.57791 0 0 1 2.53069.56846 20.3777 20.3777 0 0 0 2.72648.509 24.1871 24.1871 0 0 0 2.76533.15855 20.939 20.939 0 0 0 4.64673-.5304 12.5 12.5 0 0 0 4.19719-1.7656 9.79028 9.79028 0 0 0 3.042-3.21488 9.19354 9.19354 0 0 0 1.13852-4.88375 13.76145 13.76145 0 0 0 -.58905-2.70828"/><path d="m168.56287 129.59556c0-.49708.0261-1.03462.0785-1.60942a9.14041 9.14041 0 0 1 .31473-1.68551 6.58456 6.58456 0 0 1 .64615-1.52936 4.26024 4.26024 0 0 1 1.079-1.217 3.36787 3.36787 0 0 1 1.56977-.66517h-14.39517a3.80272 3.80272 0 0 1 2.17546.82374 5.01335 5.01335 0 0 1 1.33276 1.745 7.84372 7.84372 0 0 1 .66754 2.25557 15.80393 15.80393 0 0 1 .17759 2.27538v14.04242l-13.4938-21.1421h-16.31778a3.45611 3.45611 0 0 1 2.15644.80233 4.72986 4.72986 0 0 1 1.255 1.78544 9.01071 9.01071 0 0 1 .5891 2.27459 17.543 17.543 0 0 1 .15615 2.23732c0 .31239.005.77857.0191 1.39141v14.86933c-.007.65805-.0238 1.31845-.0587 1.97887q-.0393.74566-.11652 1.52934a7.03985 7.03985 0 0 1 -.31478 1.51035 5.23254 5.23254 0 0 1 -.66517 1.35411 3.73013 3.73013 0 0 1 -1.13846 1.05843 2.37926 2.37926 0 0 1 -.35281.17759c-.15621.0634-.32189.12289-.49.1752-.17043.0515-.32184.10387-.45186.1562a.98.98 0 0 1 -.23469.0777h14.08047q-.5851-.31157-.999-.56766a8.48868 8.48868 0 0 1 -.82374-.58748 5.39077 5.39077 0 0 1 -.6866-.64852 5.59631 5.59631 0 0 1 -1.17655-2.59014 15.82992 15.82992 0 0 1 -.27427-2.86129v-13.81805l13.27812 21.07315h16.10216a3.388 3.388 0 0 1 -1.56977-.66516 4.24983 4.24983 0 0 1 -1.079-1.217 6.59384 6.59384 0 0 1 -.64615-1.52856 9.15318 9.15318 0 0 1 -.31473-1.68791q-.0785-.8634-.0785-1.60785v-17.96528z"/><path d="m125.5471 141.79048v-12.44248a12.55217 12.55217 0 0 1 .18234-1.67364 7.2397 7.2397 0 0 1 .66516-2.02168 5.32791 5.32791 0 0 1 1.29467-1.62606 6.33854 6.33854 0 0 1 2.08115-1.1393h-18.75174a5.2335 5.2335 0 0 1 2.07878 1.11788 6.68994 6.68994 0 0 1 1.43254 2.1398 9.394 9.394 0 0 1 .64857 3.842v16.46922q0 .7849-.0404 1.88929a6.57536 6.57536 0 0 1 -.66754 3.00162 6.1595 6.1595 0 0 1 -1.39223 1.80366c-.0943.0809-.20372.15618-.31.23467-4.59757-1.87264-9.38618-6.4908-12.93248-12.03023-2.08826-3.26007-4.44611-7.58015-6.41073-11.35158 1.8465-2.31028 3.61288-4.45961 5.03757-6.09838a20.515 20.515 0 0 1 10.09659-5.33805h-15.30695s1.40408 2.01217-.6176 4.458l-10.14416 12.26496v-10.068c-.10859.0468-.218.0967-.32663.14191-.43764.17759-.89033.348-1.3494.50661a32.53352 32.53352 0 0 1 -4.28676 1.16465c-.49711.1015-1.01561.19663-1.53648.27909a29.80825 29.80825 0 0 1 -3.2981.41463v18.372l-.06581 1.41122c-.03329.37659-.07849.75556-.13482 1.148a9.80224 9.80224 0 0 1 -.71984 2.51165 6.0289 6.0289 0 0 1 -1.435 2.01931 4.39551 4.39551 0 0 1 -2.3999 1.07745h19.63655a3.6535 3.6535 0 0 1 -2.0645-1.21222 6.72353 6.72353 0 0 1 -1.25659-2.26588 13.84892 13.84892 0 0 1 -.63033-2.916q-.17718-1.59117-.20057-3.11815c-.0024-.19109-.0047-.37579-.0047-.56292.78091-1.02985 1.99075-2.62343 3.43447-4.5032.77462 1.305 1.60073 2.66149 2.453 4.01086 4.05923 6.42421 7.29787 10.5794 12.44485 10.5794 5.14859 0 28.9395-.0119 28.9395-.0119a6.72563 6.72563 0 0 1 -2.078-1.31371 7.27692 7.27692 0 0 1 -1.43021-2.15725 7.99758 7.99758 0 0 1 -.63425-3.03491v-5.97233z"/><path d="m194.06335 138.69586a3.77136 3.77136 0 0 1 1.02272 1.76642 7.845 7.845 0 0 1 .22516 2.25318q-.0393 1.23561 0 2.49026c0 .41939.0135.90934.0396 1.473a4.23913 4.23913 0 0 1 -.222 1.607 2.63547 2.63547 0 0 1 -1.02277 1.29467 4.07281 4.07281 0 0 1 -2.31342.53041 4.92041 4.92041 0 0 1 -2.90649-.78569 5.75306 5.75306 0 0 1 -1.75926-1.99789 9.375 9.375 0 0 1 -.9062-2.564v.019a27.87686 27.87686 0 0 1 -.0951-12.303 8.79221 8.79221 0 0 1 .98231-2.5521 6.00634 6.00634 0 0 1 1.77828-1.92178 5.16259 5.16259 0 0 1 2.74317-.84278 6.51761 6.51761 0 0 1 1.473.0991c.51849.0904 1.00849.18949 1.47226.29336a20.18694 20.18694 0 0 1 6.56694 2.68685c2.26508 1.485 4.09968 2.98814 4.8909 5.15889v-14.22776a4.915 4.915 0 0 1 -2.694 2.96674 7.48152 7.48152 0 0 1 -1.19319.2981c-.0928.0119-.1895.0214-.2886.0285-.0595.005-.12368.005-.1847.007a15.17627 15.17627 0 0 1 -2.3111-.19187 13.99253 13.99253 0 0 1 -2.45453-.58985q-1.2285-.41148-2.33171-.68658a16.1702 16.1702 0 0 0 -2.24921-.39244 22.846 22.846 0 0 0 -2.33408-.11575 20.5106 20.5106 0 0 0 -4.70616.52721 16.6103 16.6103 0 0 0 -4.21384 1.61022 14.47417 14.47417 0 0 0 -3.51774 2.70589 13.84437 13.84437 0 0 0 -2.10888 2.90172l-.0191.0333a23.12249 23.12249 0 0 0 -1.44211 13.32806 17.20384 17.20384 0 0 0 .86419 2.64167q.27351.65051.59936 1.25741a13.4208 13.4208 0 0 0 3.27352 4.06 13.6339 13.6339 0 0 0 4.62375 2.49027 17.91262 17.91262 0 0 0 5.91126.76426 12.27638 12.27638 0 0 0 2.67973-.39007q1.37-.35559 2.76219-.78648c.92836-.28857 1.86073-.56052 2.80342-.82374a12.31262 12.31262 0 0 1 2.76214-.45188 8.34526 8.34526 0 0 1 2.65834.31472 6.34738 6.34738 0 0 1 2.495 1.43183v-9.49224a13.88774 13.88774 0 0 1 .16574-2.07876 8.41629 8.41629 0 0 1 .5708-2.05976 5.44122 5.44122 0 0 1 1.148-1.70613 4.412 4.412 0 0 1 1.84172-1.09886h-17.5133a4.4335 4.4335 0 0 1 2.434 1.02035"/></g></svg>