<?xml version="1.0" encoding="utf-8"?>
<!-- Generator: Adobe Illustrator 25.0.0, SVG Export Plug-In . SVG Version: 6.00 Build 0)  -->
<svg version="1.1" id="Layer_1" xmlns="http://www.w3.org/2000/svg" xmlns:xlink="http://www.w3.org/1999/xlink" x="0px" y="0px"
	 viewBox="0 0 164 253" style="enable-background:new 0 0 164 253;" xml:space="preserve">
<style type="text/css">
	.st0{fill:url(#SVGID_1_);}
	.st1{opacity:0.5;fill:url(#SVGID_2_);}
	.st2{opacity:0.5;fill:url(#SVGID_3_);}
	.st3{opacity:0.5;fill:url(#SVGID_4_);}
	.st4{opacity:0.5;fill:url(#SVGID_5_);}
	.st5{opacity:0.5;}
	.st6{fill:url(#SVGID_6_);}
	.st7{opacity:0.4;fill:url(#SVGID_7_);}
	.st8{fill:url(#SVGID_8_);}
</style>
<g>
	
		<linearGradient id="SVGID_1_" gradientUnits="userSpaceOnUse" x1="648.4375" y1="2359.5896" x2="850.2332" y2="2359.5896" gradientTransform="matrix(0.6049 -0.7963 -0.7963 -0.6049 1511.9139 2169.1067)">
		<stop  offset="0" style="stop-color:#231F20;stop-opacity:0"/>
		<stop  offset="0.0736" style="stop-color:#231F20;stop-opacity:0"/>
		<stop  offset="1" style="stop-color:#400161"/>
	</linearGradient>
	<path class="st0" d="M97.52,79.69c0,0,23.47,25.73,42.8,43.04c19.32,17.31,23.75,34.66,23.45,44.98
		c-1.79,62.03-45.2,85.79-88.53,84.6c-41.67-1.15-56.09-48.75-50.47-93.62C30.38,113.81,30,49.37,73.3,8.55
		C73.3,8.55,71.85,52.95,97.52,79.69z"/>
	
		<linearGradient id="SVGID_2_" gradientUnits="userSpaceOnUse" x1="833.7658" y1="2432.8713" x2="683.4269" y2="2312.7354" gradientTransform="matrix(0.6049 -0.7963 -0.7963 -0.6049 1511.9139 2169.1067)">
		<stop  offset="0" style="stop-color:#231F20;stop-opacity:0"/>
		<stop  offset="0.0736" style="stop-color:#231F20;stop-opacity:0"/>
		<stop  offset="1" style="stop-color:#400161"/>
	</linearGradient>
	<path class="st1" d="M112.62,81.08c21.45,24.19,51.14,60.67,51.14,86.61c0,24.93-48.63,37.65-84.41,37.65
		c-26.2,0-78.47-12.18-78.47-32.07c0-42.83,3.56-43.41,22.31-93.53c4.75-12.7-15.96,94.58,55.69,91.53
		c71.64-3.05,72.1-43.51,28.56-76.58C90.05,81.48,92.82,74.37,92.82,74.37"/>
	
		<linearGradient id="SVGID_3_" gradientUnits="userSpaceOnUse" x1="646.5379" y1="2371.7559" x2="866.0465" y2="2371.7559" gradientTransform="matrix(0.6049 -0.7963 -0.7963 -0.6049 1511.9139 2169.1067)">
		<stop  offset="0" style="stop-color:#231F20;stop-opacity:0"/>
		<stop  offset="0.0736" style="stop-color:#231F20;stop-opacity:0"/>
		<stop  offset="1" style="stop-color:#400161"/>
	</linearGradient>
	<path class="st2" d="M117.99,86.73c0,0-3.11,23.28,3.13,54.34c6.24,31.06,16.62,100.43-52.06,112.07
		c-32.27-0.71-41.64-44.75-41.64-44.75S7.33,33.57,88.2,0.02c1.13,12.72,2.24,38.36,11.77,60.58
		C99.97,60.6,104.86,72.44,117.99,86.73z"/>
	
		<linearGradient id="SVGID_4_" gradientUnits="userSpaceOnUse" x1="837.5278" y1="2344.76" x2="655.8444" y2="2413.7258" gradientTransform="matrix(0.6049 -0.7963 -0.7963 -0.6049 1511.9139 2169.1067)">
		<stop  offset="0" style="stop-color:#231F20;stop-opacity:0"/>
		<stop  offset="0.0736" style="stop-color:#231F20;stop-opacity:0"/>
		<stop  offset="1" style="stop-color:#400161"/>
	</linearGradient>
	<path class="st3" d="M97.52,52.5c0,0-7.03-15.21-9.31-52.48c0,0-19.21,2.98-39.46,34.19C34.21,56.6,14.6,93.84,5.35,126.62
		c-12.32,43.69-0.74,84.11,21.93,103.65c27.24,23.47,54.58,24.86,70.31,12.43c14.19-11.21,23.42-22.64,26.41-43.13l-5.34,1.27
		c0,0-3.06,14.33-13.58,27.18c-8,9.78-28.85,23.63-42.23,17.63c-19.67-8.83-19.22-28.13-12.72-43.61
		c7.22-17.21,29.3-31.35,33.77-56.88c4.83-27.59-4.03-34.98-1.83-59.97C84.15,64.42,97.52,52.5,97.52,52.5z"/>
	
		<linearGradient id="SVGID_5_" gradientUnits="userSpaceOnUse" x1="769.7681" y1="2464.7493" x2="789.3333" y2="2394.5217" gradientTransform="matrix(0.6049 -0.7963 -0.7963 -0.6049 1511.9139 2169.1067)">
		<stop  offset="0" style="stop-color:#231F20;stop-opacity:0"/>
		<stop  offset="0.0736" style="stop-color:#231F20;stop-opacity:0"/>
		<stop  offset="1" style="stop-color:#400161"/>
	</linearGradient>
	<path class="st4" d="M58.83,158.68c0,0-0.73-25.17-3.93-43.78c-3.04-17.72-10.24-42.33,1.87-63.07
		c12.11-20.75,32.88-32.93,32.88-32.93s2.33,14.21,5.91,30.31c0,0-19.63,19.6-21.75,48.16C72.81,111.06,58.83,158.68,58.83,158.68z"
		/>
	<g class="st5">
		
			<linearGradient id="SVGID_6_" gradientUnits="userSpaceOnUse" x1="724.0259" y1="2392.7747" x2="831.3424" y2="2392.7747" gradientTransform="matrix(0.6049 -0.7963 -0.7963 -0.6049 1511.9139 2169.1067)">
			<stop  offset="0" style="stop-color:#231F20;stop-opacity:0"/>
			<stop  offset="0.0736" style="stop-color:#231F20;stop-opacity:0"/>
			<stop  offset="1" style="stop-color:#400161"/>
		</linearGradient>
		<path class="st6" d="M60.51,157.33c0,0,3.46-34.97,7.96-54.06C74.04,79.56,79.23,58.8,95.58,49.2"/>
	</g>
	
		<linearGradient id="SVGID_7_" gradientUnits="userSpaceOnUse" x1="729.8719" y1="2306.948" x2="652.6713" y2="2336.2529" gradientTransform="matrix(0.6049 -0.7963 -0.7963 -0.6049 1511.9139 2169.1067)">
		<stop  offset="0" style="stop-color:#231F20;stop-opacity:0"/>
		<stop  offset="0.0736" style="stop-color:#231F20;stop-opacity:0"/>
		<stop  offset="1" style="stop-color:#400161"/>
	</linearGradient>
	<path class="st7" d="M73.95,247.03c0,0,10.5-3.97-5.84-6.72c-16.33-2.76-10.75-2.02-10.75-2.02L52,237.71
		c0,0-11.94-11.36-1.86-35.67c18.13,3.87,40.05,5.27,67.07-0.93c-0.17,8.04-5.94,18.58-9.39,23.17c-5.94,7.9-9.61,11.26-16.16,15.39
		C84.95,243.9,79.55,246.03,73.95,247.03z"/>
	
		<linearGradient id="SVGID_8_" gradientUnits="userSpaceOnUse" x1="152.6845" y1="809.6539" x2="-67.263" y2="633.8935" gradientTransform="matrix(0.9625 0.2714 -0.2714 0.9625 238.1847 -535.3825)">
		<stop  offset="0" style="stop-color:#231F20;stop-opacity:0"/>
		<stop  offset="0.0736" style="stop-color:#231F20;stop-opacity:0"/>
		<stop  offset="1" style="stop-color:#400161"/>
	</linearGradient>
	<path class="st8" d="M151.65,214.23c0,0-31.12,11.04-78.51-53.59C25.75,96,38.08,70.07,38.95,66.7c0,0-12.75,44.44-12.75,63.46
		c0,14.73,70.92,134.54,113.47,99.44C143.05,226.31,149.35,217.92,151.65,214.23z"/>
</g>
</svg>
