<svg preserveAspectRatio="none" width="100%" height="100%" overflow="visible" style="display: block;" viewBox="0 0 32 32" fill="none" xmlns="http://www.w3.org/2000/svg">
<g id="Group">
<g id="Vector">
</g>
<path id="Vector_2" d="M28 25.3333H30.6667V28H1.33333V25.3333H4V5.33333C4 4.97971 4.14048 4.64057 4.39052 4.39052C4.64057 4.14048 4.97971 4 5.33333 4H18.6667C19.0203 4 19.3594 4.14048 19.6095 4.39052C19.8595 4.64057 20 4.97971 20 5.33333V25.3333H25.3333V14.6667H22.6667V12H26.6667C27.0203 12 27.3594 12.1405 27.6095 12.3905C27.8595 12.6406 28 12.9797 28 13.3333V25.3333ZM6.66667 6.66667V25.3333H17.3333V6.66667H6.66667ZM9.33333 14.6667H14.6667V17.3333H9.33333V14.6667ZM9.33333 9.33333H14.6667V12H9.33333V9.33333Z" fill="var(--fill-0, #69438D)"/>
</g>
</svg>
