<svg preserveAspectRatio="none" width="100%" height="100%" overflow="visible" style="display: block;" viewBox="0 0 32 32" fill="none" xmlns="http://www.w3.org/2000/svg">
<g id="Group">
<g id="Vector">
</g>
<path id="Vector_2" d="M16 2.66667C23.364 2.66667 29.3333 8.636 29.3333 16C29.3333 21.8667 25.5453 26.848 20.2813 28.6307L19.98 28.7293L16.108 18.6627C16.7939 18.6297 17.4411 18.3354 17.9169 17.8403C18.3927 17.3451 18.661 16.6867 18.6667 16C18.6667 15.4773 18.5132 14.9661 18.2251 14.5299C17.937 14.0937 17.5271 13.7519 17.0463 13.5468C16.5655 13.3417 16.035 13.2824 15.5208 13.3764C15.0066 13.4703 14.5313 13.7133 14.1541 14.0752C13.7768 14.437 13.5142 14.9017 13.399 15.4116C13.2837 15.9214 13.3208 16.4539 13.5057 16.9428C13.6906 17.4318 14.0151 17.8556 14.4389 18.1616C14.8627 18.4676 15.3671 18.6423 15.8893 18.664L12.0187 28.7293L11.7187 28.6307C9.07907 27.7355 6.78633 26.0357 5.1627 23.7701C3.53906 21.5046 2.66616 18.7873 2.66667 16C2.66667 8.636 8.636 2.66667 16 2.66667ZM16 5.33333C13.6642 5.3324 11.3927 6.0982 9.53424 7.51314C7.67579 8.92808 6.33315 10.9139 5.71251 13.1658C5.09186 15.4176 5.22752 17.8109 6.09866 19.9781C6.96979 22.1454 8.52823 23.9668 10.5347 25.1627L12.508 20.0307C11.6856 19.319 11.1005 18.3729 10.8311 17.3192C10.5618 16.2655 10.6211 15.1546 11.0011 14.1356C11.3811 13.1166 12.0636 12.2381 12.9572 11.6181C13.8507 10.998 14.9124 10.6661 16 10.6667C17.0877 10.6658 18.1496 10.9976 19.0434 11.6175C19.9371 12.2375 20.6198 13.1159 21 14.135C21.3802 15.1541 21.4396 16.265 21.1703 17.3189C20.901 18.3727 20.3158 19.3189 19.4933 20.0307C20.2467 21.996 20.9053 23.7067 21.4653 25.164C23.4724 23.9684 25.0315 22.147 25.9031 19.9794C26.7746 17.8119 26.9105 15.4182 26.2898 13.1659C25.6691 10.9137 24.3261 8.92753 22.4672 7.51252C20.6083 6.0975 18.3362 5.33191 16 5.33333Z" fill="var(--fill-0, #0F59D8)"/>
</g>
</svg>
