<svg width="16" height="16" viewBox="0 0 16 16" fill="none" xmlns="http://www.w3.org/2000/svg">
<g clip-path="url(#clip0_280_334)">
<path d="M13.1954 11.0494C13.1954 13.5507 11.244 16.0001 8.03335 16.0001C4.53402 16.0001 2.80469 13.5267 2.80469 10.4734C2.80469 7.00006 5.39935 1.83873 8.13802 0.0420585C8.17977 0.0152102 8.22823 0.000643208 8.27786 2.0814e-05C8.32749 -0.000601579 8.3763 0.0127458 8.41871 0.0385387C8.46112 0.0643316 8.49542 0.101531 8.51769 0.145888C8.53997 0.190245 8.54932 0.239972 8.54469 0.289392C8.39105 1.82615 8.79157 3.36724 9.67402 4.63473C10.022 5.16473 10.402 5.62006 10.8494 6.20273C11.476 7.02073 11.9407 7.47339 12.612 8.76406L12.622 8.78273C12.9995 9.47852 13.1966 10.2578 13.1954 11.0494Z" fill="#304254"/>
</g>
<defs>
<clipPath id="clip0_280_334">
<rect width="16" height="16" fill="white"/>
</clipPath>
</defs>
</svg>
