<svg width="60" height="60" viewBox="0 0 60 60" fill="none" xmlns="http://www.w3.org/2000/svg">
<path d="M30 1.30469C13.4575 1.30469 0 14.6022 0 30.9422C0 43.1347 7.735 54.2372 19.245 58.5697C22.63 59.8997 22.07 53.9247 27.325 39.6447C27.5925 38.8022 27.225 37.8922 26.445 37.4697C24.0125 36.1447 22.5 33.6422 22.5 30.9422C22.5 26.8547 25.8625 23.5322 30 23.5322C34.135 23.5322 37.5 26.8547 37.5 30.9422C37.5 33.6422 35.99 36.1447 33.555 37.4747C32.775 37.8972 32.405 38.8072 32.675 39.6497C38.045 55.9722 38 59.6247 40.7575 58.5722C52.2675 54.2397 60 43.1347 60 30.9422C60 14.5997 46.5425 1.30469 30 1.30469Z" fill="#69438D"/>
</svg>
